<svg width="19" height="33" viewBox="0 0 19 33" fill="none" xmlns="http://www.w3.org/2000/svg">
<g opacity="0.18">
<g opacity="0.18">
<g opacity="0.18">
<path opacity="0.18" d="M9.5 14.5C4.5 14.5 0.5 18.5 0.5 23.5C0.5 28.5 4.5 32.5 9.5 32.5C14.5 32.5 18.5 28.5 18.5 23.5C18.5 18.5 14.5 14.5 9.5 14.5ZM9.5 29.5C6.2 29.5 3.5 26.8 3.5 23.5C3.5 22.4 3.8 21.3 4.3 20.5L12.5 28.7C11.7 29.2 10.6 29.5 9.5 29.5ZM14.8 26.4L6.6 18.2C7.5 17.7 8.5 17.4 9.7 17.4C13 17.4 15.7 20.1 15.7 23.4C15.6 24.5 15.3 25.6 14.8 26.4Z" stroke="#231F20"/>
</g>
</g>
</g>
<path d="M9.5 15C4.8 15 1 18.8 1 23.5C1 28.2 4.8 32 9.5 32C14.2 32 18 28.2 18 23.5C18 18.8 14.2 15 9.5 15ZM12.8 29.1C11.8 29.7 10.7 30 9.5 30C5.9 30 3 27.1 3 23.5C3 22.3 3.3 21.2 3.9 20.2L4.2 19.6L13.3 28.7L12.8 29.1ZM15.2 26.7L14.9 27.3L5.8 18.2L6.4 17.9C7.4 17.3 8.5 17 9.7 17C13.3 17 16.2 19.9 16.2 23.5C16.1 24.6 15.8 25.7 15.2 26.7Z" fill="white"/>
<path d="M0 16.4V0.400024L11.6 12H4.6L4.4 12.1L0 16.4Z" fill="white"/>
<path d="M1 2.80002V14L4 11.1L4.1 11H9.2L1 2.80002Z" fill="black"/>
</svg>
